<svg width="43" height="42" viewBox="0 0 43 42" fill="#09090b" xmlns="http://www.w3.org/2000/svg">
<g clip-path="url(#clip0_8_6)">
<path d="M24.5797 10.5555L27.5269 5.4508H33.7494L36.8607 10.8369L34.7501 14.4954L37.5565 19.3422L42.4658 10.8369L36.5559 0.596245H24.7283L12.5801 21.6405L15.2068 26.1901H9.3125L6.20121 20.804L9.3125 15.4101H13.5339L16.3325 10.5555H6.50608L0.596191 20.7962L6.5139 31.0369H30.8023L33.4289 26.4872L36.3761 31.5997L33.2648 36.9859H27.0422L24.9315 33.3274H19.3265L24.2358 41.8404H36.0712L41.9811 31.5997L29.833 10.5555H24.5797ZM33.2648 26.198L15.5507 26.1901L24.4077 10.8526L33.2648 26.198Z" fill="#09090b"/>
</g>
<defs>
<clipPath id="clip0_8_6">
<rect width="41.8697" height="41.2442" fill="#09090b" transform="translate(0.596191 0.596245)"/>
</clipPath>
</defs>
</svg>
